<svg version="1.1" class="clearos-svg clearfoundation app-vendor-clearfoundation app-free app-category-server app-sub-category-file" viewBox="0 0 400 400" preserveAspectRatio="xMinYMin" xmlns="http://www.w3.org/2000/svg" xmlns:xlink= "http://www.w3.org/1999/xlink">
<path fill="#AA0707" d="M91.666,184.647"/>
<path fill="#AA0707" d="M123.245,247.805"/>
<path fill="#AA0707" d="M91.666,184.647"/>
<path fill="#AA0707" d="M123.245,247.805"/>
<g>
	<path fill="#686868" d="M199.967,2.659C127.628,63.176,72.03,35.209,44.415,32.57c0,121.036,0.976,100.314,0.976,142.429
		c0,100.635,88.829,196.67,154.594,222.342C265.766,371.67,354.602,275.635,354.602,175c0-42.1,0.984-21.377,0.984-142.429
		C327.896,35.208,272.324,63.176,199.967,2.659z M341.172,177.178c0,91.93-81.139,179.625-141.205,203.049
		c-60.088-23.424-141.18-111.119-141.18-203.049c0-38.461-0.914-19.542-0.914-130.101c25.235,2.397,76.009,27.952,142.094-27.327
		c66.125,55.279,116.875,29.74,142.111,27.327C342.078,157.62,341.172,138.716,341.172,177.178z"/>
	<path fill="#686868" d="M97.39,249.869L270.15,77.105c-19.861-0.734-43.512-7.417-70.184-29.725
		C144,94.18,101.019,72.545,79.657,70.515c0,93.624,0.781,77.585,0.781,110.16C80.422,204.566,86.951,228.131,97.39,249.869z"/>
	<g>
		<path fill="#686868" d="M320.23,111.936c0.031-10.813,0.063-24.228,0.063-41.42c-2.594,0.257-5.514,0.82-8.729,1.46
			L110.466,273.07c6.332,9.84,13.437,19.113,20.917,27.656L320.23,111.936z"/>
		<path fill="#686868" d="M149.375,319.045c16.841,15.521,34.557,27.328,50.594,33.574
			c50.883-19.863,119.561-94.133,119.561-171.959c0-16.248,0.188-20.417,0.344-32.137L149.375,319.045z"/>
	</g>
</g>
</svg>
